<svg class="svg-snoweb svg-theme-dark" height="100" preserveaspectratio="xMidYMid meet" viewbox="0 0 100 100" width="100" x="0" xmlns="http://www.w3.org/2000/svg" y="0">
 <path class="svg-fill-primary" d="M50,20.7a3.9,3.9,0,0,0-3.9,3.9v3.9a3.9,3.9,0,0,0,7.8,0V24.6A3.9,3.9,0,0,0,50,20.7ZM26.6,28.5H38.3a11.7,11.7,0,0,0,23.4,0H73.4a7.8,7.8,0,0,1,7.9,7.8V71.5a7.8,7.8,0,0,1-7.9,7.8H26.6a7.8,7.8,0,0,1-7.9-7.8V36.3A7.8,7.8,0,0,1,26.6,28.5Zm9.7,27.4A5.9,5.9,0,1,0,30.5,50,5.9,5.9,0,0,0,36.3,55.9Zm9.6,15.6a12.3,12.3,0,0,0,.2-2,9.8,9.8,0,0,0-19.5,0,6.5,6.5,0,0,0,.2,2ZM57.8,48a4,4,0,0,0,0,7.9H69.5a4,4,0,0,0,0-7.9ZM53.9,63.7a3.9,3.9,0,0,1,3.9-3.9h7.8a3.8,3.8,0,0,1,3.9,3.9,3.9,3.9,0,0,1-3.9,3.9H57.8A4,4,0,0,1,53.9,63.7Z" fill-rule="evenodd">
 </path>
</svg>